<?xml version="1.0" ?><svg contentScriptType="text/ecmascript" contentStyleType="text/css" enable-background="new 0 0 2048 2048" height="2048px" id="Layer_1" preserveAspectRatio="xMidYMid meet" version="1.1" viewBox="0.0 0 1280.0 2048" width="1280.0px" xml:space="preserve" xmlns="http://www.w3.org/2000/svg" xmlns:xlink="http://www.w3.org/1999/xlink" zoomAndPan="magnify"><style>path { fill: #002147; }</style><path d="M1024,1312v64c0,9.333-3,17-9,23s-13.667,9-23,9H288c-9.333,0-17-3-23-9s-9-13.667-9-23v-64c0-9.333,3-17,9-23  s13.667-9,23-9h704c9.333,0,17,3,23,9S1024,1302.667,1024,1312z M1024,1056v64c0,9.333-3,17-9,23s-13.667,9-23,9H288  c-9.333,0-17-3-23-9s-9-13.667-9-23v-64c0-9.333,3-17,9-23s13.667-9,23-9h704c9.333,0,17,3,23,9S1024,1046.667,1024,1056z M128,1664  h1024V896H736c-26.667,0-49.333-9.333-68-28s-28-41.333-28-68V384H128V1664z M768,768h376c-6.667-19.333-14-33-22-41L809,414  c-8-8-21.667-15.333-41-22V768z M1280,800v896c0,26.667-9.333,49.333-28,68s-41.333,28-68,28H96c-26.667,0-49.333-9.333-68-28  s-28-41.333-28-68V352c0-26.667,9.333-49.333,28-68s41.333-28,68-28h640c26.667,0,56,6.667,88,20s57.333,29.333,76,48l312,312  c18.667,18.667,34.667,44,48,76S1280,773.333,1280,800z"/></svg>