<?xml version="1.0" ?><svg contentScriptType="text/ecmascript" contentStyleType="text/css" enable-background="new 0 0 2048 2048" height="2048px" id="Layer_1" preserveAspectRatio="xMidYMid meet" version="1.1" viewBox="92.5 0 1479.0 2048" width="1479.0px" xml:space="preserve" xmlns="http://www.w3.org/2000/svg" xmlns:xlink="http://www.w3.org/1999/xlink" zoomAndPan="magnify"><style>path { fill: #002147; }</style><path d="M1527,1576c37.333,59.333,44.5,110.167,21.5,152.5s-69.833,63.5-140.5,63.5H256c-70.667,0-117.5-21.167-140.5-63.5  S99.667,1635.333,137,1576l503-793V384h-64c-17.333,0-32.333-6.333-45-19s-19-27.667-19-45s6.333-32.333,19-45s27.667-19,45-19h512  c17.333,0,32.333,6.333,45,19s19,27.667,19,45s-6.333,32.333-19,45s-27.667,19-45,19h-64v399L1527,1576z M748,851l-272,429h712  L916,851l-20-31v-37V384H768v399v37L748,851z"/></svg>