<?xml version="1.0" ?><svg contentScriptType="text/ecmascript" contentStyleType="text/css" enable-background="new 0 0 2048 2048" height="2048px" id="Layer_1" preserveAspectRatio="xMidYMid meet" version="1.1" viewBox="-4.666999816894531 0 1676.333984375 2048" width="1676.333984375px" xml:space="preserve" xmlns="http://www.w3.org/2000/svg" xmlns:xlink="http://www.w3.org/1999/xlink" zoomAndPan="magnify"><style>path { fill: white; }</style><path d="M1639,606c26.667,38,32.667,81,18,129l-275,906c-12.667,42.667-38.167,78.5-76.5,107.5s-79.167,43.5-122.5,43.5H260  c-51.333,0-100.833-17.833-148.5-53.5S30.667,1659,12,1607c-16-44.667-16.667-87-2-127c0-2.667,1-11.667,3-27s3.333-27.667,4-37  c0.667-5.333-0.333-12.5-3-21.5s-3.667-15.5-3-19.5c1.333-7.333,4-14.333,8-21s9.5-14.5,16.5-23.5S48,1313.667,52,1307  c15.333-25.333,30.333-55.833,45-91.5s24.667-66.167,30-91.5c2-6.667,2.167-16.667,0.5-30c-1.667-13.333-1.833-22.667-0.5-28  c2-7.333,7.667-16.667,17-28s15-19,17-23c14-24,28-54.667,42-92s22.333-67.333,25-90c0.667-6-0.167-16.667-2.5-32  s-2.167-24.667,0.5-28c2.667-8.667,10-18.833,22-30.5s19.333-19.167,22-22.5c12.667-17.333,26.833-45.5,42.5-84.5  s24.833-71.167,27.5-96.5c0.667-5.333-0.333-13.833-3-25.5s-3.333-20.5-2-26.5c1.333-5.333,4.333-11.333,9-18s10.667-14.333,18-23  s13-15.667,17-21c5.333-8,10.833-18.167,16.5-30.5s10.667-24,15-35s9.667-23,16-36s12.833-23.667,19.5-32s15.5-16.167,26.5-23.5  s23-11.167,36-11.5s28.833,1.5,47.5,5.5l-1,3c25.333-6,42.333-9,51-9h761c49.333,0,87.333,18.667,114,56s32.667,80.667,18,130  l-274,906c-24,79.333-47.833,130.5-71.5,153.5S1087,1536,1025,1536H156c-18,0-30.667,5-38,15c-7.333,10.667-7.667,25-1,43  c16,46.667,64,70,144,70h923c19.333,0,38-5.167,56-15.5s29.667-24.167,35-41.5l300-987c4.667-14.667,6.333-33.667,5-57  C1605.333,573,1625,587.333,1639,606z M575,608c-2.667,8.667-2,16.167,2,22.5s10.667,9.5,20,9.5h608c8.667,0,17.167-3.167,25.5-9.5  s13.833-13.833,16.5-22.5l21-64c2.667-8.667,2-16.167-2-22.5s-10.667-9.5-20-9.5H638c-8.667,0-17.167,3.167-25.5,9.5  S598.667,535.333,596,544L575,608z M492,864c-2.667,8.667-2,16.167,2,22.5s10.667,9.5,20,9.5h608c8.667,0,17.167-3.167,25.5-9.5  s13.833-13.833,16.5-22.5l21-64c2.667-8.667,2-16.167-2-22.5s-10.667-9.5-20-9.5H555c-8.667,0-17.167,3.167-25.5,9.5  S515.667,791.333,513,800L492,864z"/></svg>