<?xml version="1.0" ?><svg contentScriptType="text/ecmascript" contentStyleType="text/css" enable-background="new 0 0 2048 2048" height="2048px" id="Layer_1" preserveAspectRatio="xMidYMid meet" version="1.1" viewBox="0 -128 2020.0 2048" width="2016.0px" xml:space="preserve" xmlns="http://www.w3.org/2000/svg" xmlns:xlink="http://www.w3.org/1999/xlink" zoomAndPan="magnify">
<path id="flask" stroke="white" fill="white" stroke-width="10" transform="scale(0.85) translate(-100 100)" d="M1527,1576c37.333,59.333,44.5,110.167,21.5,152.5s-69.833,63.5-140.5,63.5H256c-70.667,0-117.5-21.167-140.5-63.5  S99.667,1635.333,137,1576l503-793V384h-64c-17.333,0-32.333-6.333-45-19s-19-27.667-19-45s6.333-32.333,19-45s27.667-19,45-19h512  c17.333,0,32.333,6.333,45,19s19,27.667,19,45s-6.333,32.333-19,45s-27.667,19-45,19h-64v399L1527,1576z M748,851l-272,429h712  L916,851l-20-31v-37V384H768v399v37L748,851z"/>
<path id="money" transform="scale(0.56) rotate(57) translate(1870 -2250)" stroke="white" fill="white" stroke-width="10" d="M768,1280h384v-96h-128V736H910L762,873l77,80c28-24.667,46.333-43.667,55-57h2v288H768V1280z M1280,1024  c0,46.667-7,94-21,142s-33.833,92.667-59.5,134s-59.5,75-101.5,101s-88,39-138,39s-96-13-138-39s-75.833-59.667-101.5-101  s-45.5-86-59.5-134s-21-95.333-21-142c0-46.667,7-94,21-142s33.833-92.667,59.5-134S780,673,822,647s88-39,138-39s96,13,138,39  s75.833,59.667,101.5,101s45.5,86,59.5,134S1280,977.333,1280,1024z M1792,1280V768c-70.667,0-131-25-181-75s-75-110.333-75-181H384  c0,70.667-25,131-75,181s-110.333,75-181,75v512c70.667,0,131,25,181,75s75,110.333,75,181h1152c0-70.667,25-131,75-181  S1721.333,1280,1792,1280z M1920,448v1152c0,17.333-6.333,32.333-19,45s-27.667,19-45,19H64c-17.333,0-32.333-6.333-45-19  s-19-27.667-19-45V448c0-17.333,6.333-32.333,19-45s27.667-19,45-19h1792c17.333,0,32.333,6.333,45,19S1920,430.667,1920,448z"/>
</svg>