<?xml version="1.0" ?><svg contentScriptType="text/ecmascript" contentStyleType="text/css" enable-background="new 0 0 2048 2048" height="2048px" id="Layer_1" preserveAspectRatio="xMidYMid meet" version="1.1" viewBox="0.0 0 1920.0 2048" width="1920.0px" xml:space="preserve" xmlns="http://www.w3.org/2000/svg" xmlns:xlink="http://www.w3.org/1999/xlink" zoomAndPan="magnify"><path d="M768,1280h384v-96h-128V736H910L762,873l77,80c28-24.667,46.333-43.667,55-57h2v288H768V1280z M1280,1024  c0,46.667-7,94-21,142s-33.833,92.667-59.5,134s-59.5,75-101.5,101s-88,39-138,39s-96-13-138-39s-75.833-59.667-101.5-101  s-45.5-86-59.5-134s-21-95.333-21-142c0-46.667,7-94,21-142s33.833-92.667,59.5-134S780,673,822,647s88-39,138-39s96,13,138,39  s75.833,59.667,101.5,101s45.5,86,59.5,134S1280,977.333,1280,1024z M1792,1280V768c-70.667,0-131-25-181-75s-75-110.333-75-181H384  c0,70.667-25,131-75,181s-110.333,75-181,75v512c70.667,0,131,25,181,75s75,110.333,75,181h1152c0-70.667,25-131,75-181  S1721.333,1280,1792,1280z M1920,448v1152c0,17.333-6.333,32.333-19,45s-27.667,19-45,19H64c-17.333,0-32.333-6.333-45-19  s-19-27.667-19-45V448c0-17.333,6.333-32.333,19-45s27.667-19,45-19h1792c17.333,0,32.333,6.333,45,19S1920,430.667,1920,448z"/></svg>